<?xml version="1.0" standalone="no"?>
<!DOCTYPE svg PUBLIC "-//W3C//DTD SVG 20010904//EN"
 "http://www.w3.org/TR/2001/REC-SVG-20010904/DTD/svg10.dtd">
<svg version="1.0" xmlns="http://www.w3.org/2000/svg"
 width="479.000000pt" height="525.000000pt" viewBox="0 0 479.000000 525.000000"
 preserveAspectRatio="xMidYMid meet">
<metadata>
Created by potrace 1.15, written by Peter Selinger 2001-2017
</metadata>
<g transform="translate(0.000000,525.000000) scale(0.100000,-0.100000)"
fill="#000000" stroke="none">
<path d="M0 2625 l0 -2625 2395 0 2395 0 0 2625 0 2625 -2395 0 -2395 0 0
-2625z m1958 2135 c0 -32 -1 -33 -8 -10 -4 14 -8 43 -8 65 0 38 1 39 8 10 4
-16 8 -46 8 -65z m987 -41 c-15 -56 -31 -81 -22 -34 7 35 25 85 31 85 2 0 -2
-23 -9 -51z m-1491 15 c4 -10 1 -14 -6 -12 -15 5 -23 28 -10 28 5 0 13 -7 16
-16z m35 -104 c1 -13 0 -13 -9 0 -5 8 -9 24 -9 35 l0 20 9 -20 c5 -11 9 -27 9
-35z m505 2 c10 -17 18 -172 8 -172 -10 0 -32 104 -32 153 0 25 13 36 24 19z
m440 -44 c4 -29 4 -60 2 -68 -21 -78 -36 -80 -36 -4 0 30 3 53 8 50 4 -2 6 13
4 35 -3 23 0 39 6 39 6 0 13 -24 16 -52z m-197 -50 c-2 -18 -4 -6 -4 27 0 33
2 48 4 33 2 -15 2 -42 0 -60z m237 67 c3 -8 1 -15 -4 -15 -6 0 -10 7 -10 15 0
8 2 15 4 15 2 0 6 -7 10 -15z m-609 -37 c22 -54 29 -122 13 -136 -21 -17 -35
-1 -41 48 -4 25 -9 62 -12 83 -5 30 -4 37 10 37 9 0 22 -15 30 -32z m712 -10
c-3 -7 -5 -2 -5 12 0 14 2 19 5 13 2 -7 2 -19 0 -25z m208 -64 c-17 -72 -30
-103 -40 -93 -5 6 17 128 31 162 4 11 10 15 15 10 6 -6 3 -39 -6 -79z m-179
-4 c-13 -65 -18 -58 -10 14 4 32 10 53 14 47 3 -7 2 -34 -4 -61z m821 30 c-12
-22 -23 -35 -25 -30 -4 12 26 70 37 70 5 0 0 -18 -12 -40z m-1688 2 c-3 -33 1
-53 10 -48 8 6 23 -45 15 -53 -2 -2 -10 2 -19 9 -19 15 -35 73 -28 100 6 23
25 16 22 -8z m996 19 c3 -5 1 -12 -5 -16 -5 -3 -10 1 -10 9 0 18 6 21 15 7z
m-1169 -69 c-9 -8 -26 10 -26 26 1 15 2 15 15 -2 8 -11 13 -21 11 -24z m1444
-17 c-15 -39 -23 -25 -8 16 6 18 13 29 15 23 2 -6 -1 -24 -7 -39z m-440 15 c0
-11 -4 -20 -10 -20 -5 0 -10 9 -10 20 0 11 5 20 10 20 6 0 10 -9 10 -20z
m-1144 -82 c18 -29 35 -63 38 -75 7 -21 5 -22 -16 -14 -16 6 -22 16 -21 30 3
21 -22 81 -32 81 -3 0 2 -16 10 -37 23 -55 10 -52 -19 6 -31 60 -31 61 -8 61
10 0 30 -21 48 -52z m173 -13 l0 -20 -9 20 c-5 11 -9 29 -9 40 l0 20 9 -20 c5
-11 9 -29 9 -40z m1385 1 c-6 -16 -24 -23 -24 -8 0 10 22 33 27 28 2 -2 1 -11
-3 -20z m-563 -8 c1 -13 1 -26 1 -29 -3 -18 -11 -126 -11 -141 -1 -10 -5 -18
-11 -18 -11 0 -13 113 -4 173 7 41 23 50 25 15z m859 -3 c10 -18 19 -24 33
-19 14 4 17 3 12 -6 -4 -6 -18 -10 -30 -8 -21 4 -22 2 -17 -35 5 -39 4 -40
-22 -35 -25 5 -26 4 -20 -30 7 -34 6 -35 -22 -28 -16 4 -32 11 -36 14 -16 16
53 172 76 172 7 0 19 -11 26 -25z m-2040 -10 c5 -14 16 -25 24 -25 10 0 13 6
10 15 -12 29 4 14 35 -33 37 -59 38 -65 6 -82 -22 -12 -26 -11 -45 11 -30 35
-72 118 -65 129 11 17 25 11 35 -15z m2453 -6 c-21 -35 -51 -65 -58 -57 -7 7
53 88 66 88 5 0 2 -14 -8 -31z m-1750 -99 l6 -55 -14 50 c-7 28 -13 61 -13 75
-1 43 15 -7 21 -70z m633 12 c-13 -12 -17 8 -10 40 l9 33 3 -33 c2 -19 1 -36
-2 -40z m161 35 c-2 -7 -10 -38 -17 -70 -6 -31 -16 -57 -21 -57 -11 0 -11 13
2 70 13 62 17 70 30 70 6 0 9 -6 6 -13z m1153 -70 c0 -1 -24 -25 -52 -52 -29
-28 -42 -36 -28 -20 32 39 80 83 80 72z m-2869 -43 c13 -14 17 -23 9 -19 -13
5 -46 45 -37 45 2 0 14 -11 28 -26z m522 -36 c19 -35 38 -74 42 -88 14 -46
-21 -4 -59 72 -40 77 -40 78 -26 78 5 0 25 -28 43 -62z m1997 21 c0 -6 10 -8
23 -5 12 3 7 -1 -12 -10 -31 -14 -74 -54 -66 -62 2 -2 13 2 25 8 20 11 20 8
-5 -23 -25 -31 -30 -33 -43 -20 -13 13 -12 18 8 46 13 18 31 42 39 54 17 24
31 30 31 12z m-2123 -14 c5 -4 2 -5 -4 -1 -7 4 -13 4 -13 1 0 -9 31 -67 51
-95 21 -30 35 -80 22 -80 -15 0 -46 39 -88 108 -32 52 -36 65 -24 72 16 10 45
8 56 -5z m2508 -5 c-3 -5 -11 -10 -16 -10 -6 0 -7 5 -4 10 3 6 11 10 16 10 6
0 7 -4 4 -10z m-765 -15 c0 -34 -80 -165 -101 -165 -17 0 -9 37 22 96 17 32
36 65 41 72 14 17 38 15 38 -3z m-1696 -52 c15 -25 24 -48 22 -50 -3 -3 -12
10 -22 28 -9 18 -23 39 -30 47 -8 7 -14 18 -14 23 0 19 18 -1 44 -48z m-373
20 c13 -15 12 -15 -8 -4 -24 12 -29 21 -14 21 5 0 15 -7 22 -17z m1446 -55
c-3 -8 -6 -5 -6 6 -1 11 2 17 5 13 3 -3 4 -12 1 -19z m-1680 -38 c67 -54 95
-90 69 -90 -24 0 -146 112 -146 134 0 14 19 3 77 -44z m2793 37 c0 -1 -26 -27
-57 -57 -49 -46 -52 -48 -18 -10 47 52 75 77 75 67z m-2710 -32 c13 -14 21
-27 18 -30 -2 -3 -17 9 -33 25 -16 17 -24 30 -19 30 6 0 21 -11 34 -25z m3085
-15 c-10 -11 -23 -20 -28 -20 -6 0 0 11 13 25 27 29 42 25 15 -5z m-1498 -42
c-3 -8 -6 -5 -6 6 -1 11 2 17 5 13 3 -3 4 -12 1 -19z m1179 -9 c-8 -11 -25
-28 -38 -36 -15 -11 -11 -4 11 20 39 41 49 47 27 16z m264 13 c0 -5 -9 -17
-20 -27 -16 -14 -20 -15 -20 -4 0 16 19 39 32 39 4 0 8 -4 8 -8z m-2269 -124
c11 -21 18 -38 15 -38 -10 0 -86 141 -86 159 0 7 41 -63 71 -121z m1679 97
c-7 -9 -15 -13 -19 -10 -3 3 1 10 9 15 21 14 24 12 10 -5z m-1833 -42 c36 -47
96 -153 90 -160 -9 -8 -42 18 -59 46 -9 14 -32 52 -52 84 -41 66 -41 67 -22
67 8 0 27 -17 43 -37z m1503 27 c0 -14 -68 -148 -93 -184 -17 -23 -21 -26 -29
-13 -10 19 1 47 55 140 35 59 67 87 67 57z m-2355 -22 c15 -13 54 -49 87 -80
40 -39 68 -58 84 -58 14 0 37 -12 52 -27 15 -15 33 -28 42 -29 8 -1 60 -45
115 -98 98 -95 117 -109 182 -140 17 -9 35 -21 39 -28 6 -9 3 -9 -9 1 -23 18
-22 -2 1 -22 16 -14 21 -15 37 -3 19 14 16 16 78 -38 13 -11 33 -26 43 -32 11
-6 19 -20 19 -30 0 -16 82 -104 98 -104 3 0 45 -30 94 -66 81 -62 142 -116
262 -235 45 -45 76 -60 195 -101 34 -11 65 -24 71 -29 13 -12 62 -11 86 2 14
7 24 7 33 0 6 -6 22 -7 35 -4 47 12 97 -47 106 -126 1 -13 12 -31 23 -40 11
-9 39 -32 63 -52 24 -20 89 -60 144 -89 55 -29 109 -60 120 -69 11 -10 49 -32
85 -51 36 -18 86 -49 112 -67 26 -18 50 -33 53 -33 3 0 14 -8 25 -17 11 -10
53 -37 93 -60 39 -22 72 -48 71 -55 -1 -8 5 -15 12 -15 7 0 11 4 8 9 -9 13 3
9 61 -22 31 -17 77 -35 103 -41 47 -10 143 -67 172 -103 11 -12 32 -19 64 -22
30 -2 56 -10 70 -22 11 -11 40 -29 64 -41 33 -17 42 -27 42 -47 l0 -26 -56 31
-55 32 -19 -23 c-10 -13 -14 -26 -9 -29 5 -3 7 -12 4 -21 -4 -9 3 -19 17 -26
14 -6 17 -11 8 -11 -10 -1 -4 -10 15 -26 41 -34 11 -32 -34 2 -41 32 -121 40
-121 13 0 -8 -12 -48 -27 -89 -27 -75 -89 -150 -124 -151 -8 0 -20 -5 -26 -11
-16 -16 -52 8 -161 111 -49 47 -142 123 -207 169 -64 46 -168 134 -232 195
-64 61 -124 117 -135 124 -13 9 -17 21 -13 35 4 15 3 18 -3 9 -10 -15 -22 -3
-102 93 -22 28 -52 62 -65 77 -14 16 -48 58 -77 95 -61 77 -66 72 -48 -47 13
-85 12 -71 10 -290 -1 -91 1 -199 4 -240 4 -41 9 -145 11 -230 3 -85 9 -218
13 -295 9 -158 9 -306 -1 -322 -4 -6 0 -32 7 -59 9 -32 14 -104 15 -209 0 -88
3 -187 6 -220 6 -58 6 -60 -21 -72 -65 -30 -135 -1 -139 57 -11 146 -19 202
-26 183 -11 -30 -13 -120 -4 -171 7 -38 6 -42 -10 -36 -10 4 -20 1 -25 -6 -5
-9 -11 4 -15 36 -4 27 -8 54 -9 59 -2 6 3 33 10 60 8 28 14 71 14 96 0 25 3
49 7 52 12 13 16 74 16 282 0 138 4 212 11 217 7 5 12 97 13 275 1 147 5 284
8 303 13 77 16 251 5 302 -6 29 -13 105 -16 168 -8 177 -11 195 -40 210 -13 8
-28 27 -32 44 -8 30 -50 63 -132 102 -86 41 -136 68 -143 80 -10 17 -148 107
-212 139 -16 8 -70 41 -120 73 -85 56 -122 70 -93 34 14 -17 -21 3 -78 45 -35
26 -281 146 -304 148 -14 2 -76 26 -160 63 -19 8 -69 34 -110 56 -41 23 -91
48 -110 55 -71 27 -186 86 -240 121 -30 20 -63 39 -73 43 -23 9 -41 50 -33 80
3 13 26 50 51 82 25 32 45 65 45 72 0 19 98 121 133 139 15 8 32 12 37 9 6 -3
10 2 10 13 0 38 16 41 55 10z m3000 -8 c-26 -29 -39 -25 -13 5 12 14 24 23 26
20 3 -3 -3 -14 -13 -25z m-375 -23 c0 -2 -10 -12 -21 -23 -22 -19 -22 -19 -8
4 12 19 29 30 29 19z m500 -32 c-23 -19 -45 -35 -48 -35 -10 1 70 70 81 70 5
0 -10 -16 -33 -35z m402 -57 c-7 -7 -12 -8 -12 -2 0 6 3 14 7 17 3 4 9 5 12 2
2 -3 -1 -11 -7 -17z m-972 -12 c0 -2 -8 -10 -17 -17 -16 -13 -17 -12 -4 4 13
16 21 21 21 13z m288 -36 c-12 -17 -33 -38 -47 -46 -16 -10 -9 1 19 30 51 53
60 58 28 16z m632 20 c-8 -5 -19 -10 -25 -10 -5 0 -3 5 5 10 8 5 20 10 25 10
6 0 3 -5 -5 -10z m-2460 -95 c22 -30 40 -56 40 -58 0 -4 32 -60 126 -222 13
-22 24 -44 24 -50 0 -10 -108 149 -140 205 -8 14 -25 36 -37 48 -13 12 -23 28
-23 36 0 7 -7 20 -16 27 -26 21 -38 69 -19 69 3 0 23 -25 45 -55z m2480 31 c0
-2 -7 -7 -16 -10 -8 -3 -12 -2 -9 4 6 10 25 14 25 6z m-1270 -13 c0 -9 -100
-196 -111 -208 -15 -15 -11 13 7 46 8 17 13 37 10 45 -3 8 -2 13 2 10 5 -3 24
22 43 54 30 53 49 73 49 53z m243 -24 c-10 -17 -27 -38 -37 -47 -18 -16 -18
-16 -6 8 12 24 50 70 57 70 2 0 -4 -14 -14 -31z m847 19 c0 -22 -17 -41 -30
-33 -7 4 -25 -5 -43 -23 -45 -42 -76 -57 -91 -42 -12 13 4 29 84 80 48 31 80
38 80 18z m-2949 -25 c13 -16 12 -17 -3 -4 -10 7 -18 15 -18 17 0 8 8 3 21
-13z m3244 -42 c-7 -12 -117 -63 -123 -57 -4 5 106 65 121 66 5 0 6 -4 2 -9z
m-2456 -56 c0 -5 -6 -1 -14 9 -8 11 -15 24 -15 30 0 5 7 1 15 -10 8 -10 14
-23 14 -29z m1916 -40 c-41 -34 -145 -88 -145 -76 0 11 87 77 121 90 44 18 55
11 24 -14z m329 -12 c-68 -52 -179 -80 -143 -36 23 27 106 61 136 55 25 -5 25
-6 7 -19z m-1334 -102 c0 -5 -9 -19 -20 -32 -17 -21 -19 -21 -13 -4 6 18 24
44 31 45 1 0 2 -4 2 -9z m1079 -15 c-49 -34 -141 -77 -148 -70 -16 16 115 93
159 94 23 0 23 -1 -11 -24z m-3427 -45 c76 -25 118 -59 58 -46 -55 11 -162 63
-155 75 4 7 11 7 18 2 7 -5 42 -19 79 -31z m3718 30 c0 -10 -24 -21 -43 -21
-7 0 -3 7 7 15 22 17 36 19 36 6z m-84 -36 c-11 -8 -25 -15 -30 -15 -6 0 -2 7
8 15 11 8 25 15 30 15 6 0 2 -7 -8 -15z m-2059 -132 c71 -115 99 -168 84 -158
-6 3 -29 39 -51 78 -23 40 -56 96 -75 125 -19 28 -31 52 -27 52 5 0 36 -44 69
-97z m2478 87 c-3 -5 -16 -10 -28 -10 -18 0 -19 2 -7 10 20 13 43 13 35 0z
m-845 -21 c-36 -24 -174 -89 -160 -75 16 16 148 85 165 86 6 0 3 -5 -5 -11z
m-947 -18 c-12 -10 -20 -21 -17 -24 5 -5 -23 -68 -35 -77 -4 -3 -18 -26 -31
-52 -14 -27 -28 -48 -32 -48 -13 0 -9 13 17 55 13 22 36 65 50 95 25 53 40 70
60 70 6 -1 0 -9 -12 -19z m1697 10 c0 -5 -11 -11 -25 -13 -24 -5 -32 2 -18 15
9 10 43 8 43 -2z m-3972 -53 c61 -23 70 -44 15 -33 -41 7 -143 50 -143 60 0 9
69 -5 128 -27z m3826 -27 c5 -8 -102 -46 -148 -53 -27 -4 -31 18 -6 32 41 22
145 36 154 21z m-3552 -53 c32 -11 57 -23 54 -25 -6 -7 -128 27 -156 43 -25
15 -25 15 9 9 19 -3 61 -15 93 -27z m3813 13 c-6 -4 -26 -11 -45 -15 -32 -5
-34 -5 -16 9 21 16 77 22 61 6z m-4163 -42 c9 -5 23 -6 31 -3 20 7 57 -13 57
-31 0 -33 -172 4 -178 37 -3 14 3 16 35 11 21 -3 46 -10 55 -14z m3603 -14
c-35 -16 -64 -20 -49 -6 10 10 39 18 64 19 8 0 2 -6 -15 -13z m305 -25 c-8 -5
-28 -9 -45 -9 -29 1 -29 1 -5 9 14 4 34 8 45 9 16 1 17 -1 5 -9z m-3590 -20
l25 -8 -25 0 c-14 0 -34 3 -45 8 l-20 9 20 -1 c11 0 31 -4 45 -8z m3507 4 c-3
-3 -12 -4 -19 -1 -8 3 -5 6 6 6 11 1 17 -2 13 -5z m-1609 -45 c-2 -6 -8 -10
-13 -10 -5 0 -11 4 -13 10 -2 6 4 11 13 11 9 0 15 -5 13 -11z m1442 1 c-14 -4
-36 -8 -50 -8 -23 -1 -23 0 -5 8 11 5 34 8 50 8 29 0 29 0 5 -8z m-120 -19 c0
-5 -11 -11 -25 -13 -14 -3 -25 -2 -25 3 0 4 10 10 23 12 12 2 23 5 25 6 1 0 2
-3 2 -8z m-2894 -22 c9 -15 -23 -10 -35 5 -10 12 -8 13 9 9 11 -3 23 -9 26
-14z m3239 -20 c-22 -4 -53 -8 -70 -7 l-30 0 30 8 c17 4 48 8 70 8 l40 0 -40
-9z m-3871 -195 c9 -3 16 -12 16 -20 0 -11 -17 -14 -74 -14 -76 0 -106 6 -106
20 0 16 131 27 164 14z m258 -13 c13 -5 32 -13 43 -16 19 -7 18 -8 -5 -15 -25
-7 -177 4 -187 14 -24 23 98 37 149 17z m163 -11 c3 -5 -1 -10 -10 -10 -9 0
-13 5 -10 10 3 6 8 10 10 10 2 0 7 -4 10 -10z m148 -17 c-7 -2 -21 -2 -30 0
-10 3 -4 5 12 5 17 0 24 -2 18 -5z m3325 0 c-10 -2 -28 -2 -40 0 -13 2 -5 4
17 4 22 1 32 -1 23 -4z m-3065 -10 c-13 -2 -33 -2 -45 0 -13 2 -3 4 22 4 25 0
35 -2 23 -4z m3121 -9 c38 -15 9 -24 -74 -24 -49 0 -90 4 -90 9 0 5 8 12 18
14 26 7 128 8 146 1z m-250 -14 c-12 -12 -156 -25 -179 -16 -38 14 2 26 93 26
64 0 93 -3 86 -10z m-1529 -21 c11 -17 -1 -21 -15 -4 -8 9 -8 15 -2 15 6 0 14
-5 17 -11z m1182 4 c-20 -2 -52 -2 -70 0 -17 2 0 4 38 4 39 0 53 -2 32 -4z
m-707 -11 c0 -13 -12 -22 -22 -16 -10 6 -1 24 13 24 5 0 9 -4 9 -8z m-2393 -8
c-3 -3 -12 -4 -19 -1 -8 3 -5 6 6 6 11 1 17 -2 13 -5z m3661 -1 c-15 -2 -42
-2 -60 0 -18 2 -6 4 27 4 33 0 48 -2 33 -4z m265 0 c-13 -2 -35 -2 -50 0 -16
2 -5 4 22 4 28 0 40 -2 28 -4z m-3583 -42 c0 -9 -96 -21 -173 -21 -66 0 -55 9
24 19 89 12 149 13 149 2z m-582 -32 c4 -22 -19 -30 -109 -36 -68 -5 -77 -4
-83 13 -12 32 20 45 109 42 64 -2 80 -6 83 -19z m286 13 c3 -5 -38 -14 -90
-21 -74 -10 -98 -10 -109 -1 -8 7 -12 16 -9 21 7 11 201 12 208 1z m2959 -129
c-7 -2 -19 -2 -25 0 -7 3 -2 5 12 5 14 0 19 -2 13 -5z m92 -13 c-3 -5 -10 -10
-16 -10 -5 0 -9 5 -9 10 0 6 7 10 16 10 8 0 12 -4 9 -10z m192 -26 c-3 -3 -12
-4 -19 -1 -8 3 -5 6 6 6 11 1 17 -2 13 -5z m351 -15 c2 -5 17 -9 33 -9 24 0
29 -4 29 -25 0 -29 -10 -30 -110 -14 -68 11 -97 28 -87 52 5 12 19 14 69 10
35 -3 65 -10 66 -14z m-3605 -46 c-13 -2 -33 -2 -45 0 -13 2 -3 4 22 4 25 0
35 -2 23 -4z m3774 1 c-3 -3 -12 -4 -19 -1 -8 3 -5 6 6 6 11 1 17 -2 13 -5z
m-2572 -14 c-3 -5 -12 -10 -18 -10 -7 0 -6 4 3 10 19 12 23 12 15 0z m2658 3
c-7 -2 -19 -2 -25 0 -7 3 -2 5 12 5 14 0 19 -2 13 -5z m-3986 -9 c-3 -3 -12
-4 -19 -1 -8 3 -5 6 6 6 11 1 17 -2 13 -5z m-182 -44 c-16 -4 -43 -8 -60 -8
-29 0 -29 0 -5 8 14 4 41 8 60 8 l35 0 -30 -8z m1350 -50 c-3 -5 -12 -10 -18
-10 -7 0 -6 4 3 10 19 12 23 12 15 0z m-35 -25 c0 -2 -18 -14 -40 -25 -22 -11
-40 -16 -40 -10 0 5 6 10 14 10 7 0 19 7 26 15 12 14 40 21 40 10z m-104 -61
c-30 -21 -44 -16 -17 7 13 11 27 17 30 13 3 -3 -3 -12 -13 -20z m2559 6 c3 -5
-3 -10 -14 -10 -12 0 -21 5 -21 10 0 6 6 10 14 10 8 0 18 -4 21 -10z m400 -19
c36 -18 38 -20 15 -22 -69 -4 -145 15 -154 38 -6 14 0 15 47 10 29 -4 71 -16
92 -26z m-3005 -10 c0 -11 -61 -43 -68 -36 -3 3 -3 6 -1 8 21 12 65 37 67 37
1 0 2 -4 2 -9z m2721 -6 c43 -18 27 -19 -31 -1 -25 8 -36 15 -24 15 12 1 37
-6 55 -14z m-3912 -9 c-2 -2 -20 -6 -39 -10 -25 -4 -31 -3 -20 4 14 9 69 15
59 6z m677 -21 c-22 -17 -46 -20 -46 -6 0 10 22 18 50 20 11 0 10 -4 -4 -14z
m-576 -29 c0 -3 -25 -10 -55 -16 -30 -6 -57 -16 -60 -21 -4 -5 -16 -9 -28 -9
-39 0 -1 23 60 36 65 14 83 16 83 10z m945 -26 c-44 -35 -165 -104 -171 -97
-7 6 11 19 105 76 94 57 123 66 66 21z m-490 10 c-11 -5 -27 -9 -35 -9 -13 -1
-13 0 0 9 8 5 24 9 35 9 l20 0 -20 -9z m-449 -15 c-22 -17 -46 -20 -46 -6 0 8
21 16 55 19 6 1 1 -5 -9 -13z m-106 -35 c-8 -5 -22 -10 -30 -10 -13 0 -13 1 0
10 8 5 22 10 30 10 13 0 13 -1 0 -10z m420 -10 c-60 -33 -139 -60 -156 -53
-13 5 -7 11 22 26 52 26 113 46 144 46 23 0 22 -1 -10 -19z m3408 -5 c12 -3
22 -11 22 -16 0 -13 -37 -2 -65 18 l-20 15 20 -5 c11 -3 30 -8 43 -12z m190
-61 c24 -7 31 -24 9 -24 -15 0 -57 29 -42 30 6 0 20 -3 33 -6z m-3840 -41 c2
-16 -9 -26 -53 -47 -64 -30 -84 -32 -111 -10 -20 16 -15 16 34 -3 16 -6 16 -5
0 14 -10 11 -18 22 -18 26 0 13 74 29 108 22 33 -6 35 -5 21 11 -12 15 -12 17
1 12 8 -2 16 -14 18 -25z m650 5 c-3 -7 -42 -37 -88 -66 -60 -38 -87 -49 -94
-41 -8 8 0 20 27 44 63 55 166 96 155 63z m3287 -8 c8 -13 -5 -13 -25 0 -13 8
-13 10 2 10 9 0 20 -4 23 -10z m-445 -65 c16 -8 31 -24 35 -35 5 -15 12 -19
30 -14 17 4 26 0 35 -15 14 -28 4 -43 -23 -36 -21 6 -22 6 -3 -9 26 -21 4 -20
-35 0 -17 8 -33 13 -36 11 -2 -3 5 -8 16 -12 12 -3 21 -10 21 -15 0 -15 -87
27 -118 57 -16 16 -12 16 23 3 17 -7 24 -7 20 0 -10 16 7 12 40 -10 17 -11 34
-20 39 -20 15 0 -15 29 -37 36 -12 4 -35 15 -50 26 -26 19 -27 21 -10 34 22
17 19 17 53 -1z m-3110 -35 c0 -5 -6 -10 -14 -10 -8 0 -23 -3 -33 -6 -16 -6
-16 -5 2 9 23 19 45 22 45 7z m18 -47 c-2 -10 -14 -20 -27 -21 -14 -2 -33 -14
-43 -27 -25 -32 -96 -59 -114 -44 -18 15 -9 24 24 24 20 0 28 6 30 23 4 24 -8
28 -41 11 -19 -9 -18 -7 3 10 30 25 43 26 60 6 11 -13 15 -11 32 10 24 31 82
36 76 8z m3072 -113 c3 -4 15 -12 28 -19 31 -16 29 -33 -3 -21 -33 13 -145 91
-145 102 0 8 110 -49 120 -62z m240 60 c0 -5 -6 -10 -14 -10 -8 0 -18 5 -21
10 -3 6 3 10 14 10 12 0 21 -4 21 -10z m83 -43 c18 -8 38 -21 46 -31 13 -15
12 -16 -11 -7 -37 14 -95 51 -80 51 7 0 27 -6 45 -13z m-3665 -9 c-6 -19 -130
-98 -152 -98 -18 0 -18 2 4 24 12 14 36 28 52 31 16 4 40 18 53 31 26 26 49
32 43 12z m3600 -16 c12 -8 21 -16 19 -18 -6 -7 -75 25 -83 37 -8 14 31 2 64
-19z m-3587 -53 c-13 -11 -27 -17 -30 -13 -7 7 28 34 43 34 6 -1 0 -10 -13
-21z m3669 6 c7 -8 8 -15 2 -15 -5 0 -15 7 -22 15 -7 8 -8 15 -2 15 5 0 15 -7
22 -15z m-2660 -14 c-5 -11 -15 -23 -22 -27 -7 -5 -8 -2 -3 7 21 37 44 55 25
20z m-1086 -36 c-10 -8 -23 -14 -29 -14 -5 0 -1 6 9 14 11 8 24 15 30 15 5 0
1 -7 -10 -15z m2243 -7 c-3 -8 -6 -5 -6 6 -1 11 2 17 5 13 3 -3 4 -12 1 -19z
m783 -30 c0 -6 -7 -5 -15 2 -8 7 -15 17 -15 22 0 6 7 5 15 -2 8 -7 15 -17 15
-22z m588 -15 c52 -34 67 -49 35 -35 -33 14 -112 67 -113 75 0 9 1 8 78 -40z
m-645 -52 c-5 -7 -43 31 -43 42 0 6 10 -1 23 -14 13 -13 22 -26 20 -28z m-674
-16 l0 -20 -9 20 c-5 11 -9 29 -9 40 l0 20 9 -20 c5 -11 9 -29 9 -40z m-1829
22 c0 -2 -19 -21 -42 -42 l-43 -40 40 43 c36 39 45 47 45 39z m489 -54 c-25
-43 -39 -60 -39 -50 0 11 49 87 56 87 3 0 -4 -17 -17 -37z m-409 -28 c-24 -25
-46 -45 -47 -45 -9 0 33 53 56 70 41 31 39 24 -9 -25z m-320 10 c-7 -8 -18
-15 -24 -15 -6 0 -2 7 8 15 25 19 32 19 16 0z m-95 -75 c-16 -16 -31 -27 -34
-24 -6 6 45 54 56 54 4 0 -6 -13 -22 -30z m2981 -5 c17 -19 29 -35 25 -35 -4
0 -22 16 -41 35 -19 19 -30 35 -25 35 5 0 23 -16 41 -35z m-141 -17 c0 -8 8
-26 18 -39 12 -16 16 -18 13 -6 -4 11 -2 16 5 12 6 -4 8 -13 5 -21 -3 -8 1
-14 8 -14 13 0 30 -39 21 -48 -6 -6 -115 131 -115 146 0 12 3 12 23 -1 12 -8
22 -21 22 -29z m-615 -11 c0 -5 -4 -5 -10 -2 -5 3 -10 14 -10 23 0 15 2 15 10
2 5 -8 10 -19 10 -23z m-1627 1 c-11 -13 -25 -32 -31 -43 -6 -11 -12 -15 -12
-8 0 12 48 73 58 73 3 0 -4 -10 -15 -22z m-479 -28 c-46 -47 -51 -49 -27 -13
10 15 17 30 16 33 -1 3 4 4 12 2 7 -1 16 2 20 8 3 5 9 10 12 10 3 0 -12 -18
-33 -40z m1985 -30 c1 -13 0 -13 -9 0 -5 8 -9 24 -9 35 l0 20 9 -20 c5 -11 9
-27 9 -35z m-1967 0 c-13 -10 -32 -29 -43 -42 -19 -21 -19 -20 1 9 11 18 29
37 38 43 27 15 29 11 4 -10z m1076 -34 c-7 -25 -16 -46 -20 -46 -10 0 -11 -1
8 54 20 59 29 54 12 -8z m239 32 c-3 -8 -6 -5 -6 6 -1 11 2 17 5 13 3 -3 4
-12 1 -19z m1828 -8 c16 -16 24 -30 19 -30 -6 0 -20 14 -32 30 -13 17 -21 30
-19 30 2 0 16 -13 32 -30z m-2576 -17 c-43 -72 -81 -124 -86 -120 -6 7 11 40
55 105 40 59 65 71 31 15z m1560 -4 c16 -46 14 -48 -9 -11 -22 37 -24 42 -11
42 5 0 14 -14 20 -31z m-1989 12 c0 -5 -10 -12 -22 -16 -14 -4 -18 -8 -11 -11
8 -4 -1 -20 -27 -45 -22 -22 -45 -37 -50 -34 -15 9 2 36 50 78 39 36 60 46 60
28z m2899 -52 c30 -33 52 -62 49 -65 -7 -6 -118 105 -118 118 0 17 17 4 69
-53z m-489 -46 c30 -46 36 -62 25 -66 -12 -5 -27 14 -92 120 -42 71 20 21 67
-54z m-1910 35 c-11 -18 -28 -48 -37 -65 -9 -18 -20 -33 -25 -33 -10 0 51 112
66 122 19 13 18 9 -4 -24z m1360 -14 c0 -14 -4 -22 -10 -19 -5 3 -10 17 -10
31 0 14 4 22 10 19 6 -3 10 -17 10 -31z m494 -66 c16 -27 24 -48 19 -48 -8 0
-83 120 -83 135 0 11 33 -33 64 -87z m-1780 48 c-3 -9 -10 -16 -15 -16 -5 0
-4 9 3 20 14 22 21 20 12 -4z m1690 -95 c9 -17 13 -31 8 -31 -8 0 -62 103 -62
118 0 8 30 -40 54 -87z m-182 27 c23 -36 62 -148 54 -156 -19 -18 -86 107 -86
160 0 25 15 23 32 -4z m-1563 -32 c-7 -14 -16 -26 -21 -26 -12 0 -10 8 8 36
21 31 29 25 13 -10z m246 4 c-4 -12 -9 -19 -12 -17 -3 3 -2 15 2 27 4 12 9 19
12 17 3 -3 2 -15 -2 -27z m1160 -110 c11 -50 -11 -28 -24 24 -6 25 -11 51 -11
58 1 18 26 -42 35 -82z m-1635 68 c0 -7 -18 -40 -40 -73 -22 -33 -40 -52 -40
-43 0 9 -5 18 -11 20 -15 5 58 108 77 108 8 0 14 -6 14 -12z m576 -15 c-10
-10 -19 5 -10 18 6 11 8 11 12 0 2 -7 1 -15 -2 -18z m278 -60 c-6 -102 -13
-133 -30 -133 -12 0 -14 7 -10 28 2 15 7 50 11 77 9 78 16 106 24 100 5 -2 7
-35 5 -72z m-404 37 c0 -5 -4 -10 -10 -10 -5 0 -10 5 -10 10 0 6 5 10 10 10 6
0 10 -4 10 -10z m1809 -34 c20 -29 29 -51 24 -62 -5 -13 -3 -15 7 -9 9 5 11 4
6 -3 -12 -21 -21 -13 -51 43 -17 30 -33 55 -37 55 -5 0 -8 5 -8 10 0 24 32 6
59 -34z m-2183 8 c-4 -9 -9 -15 -11 -12 -3 3 -3 13 1 22 4 9 9 15 11 12 3 -3
3 -13 -1 -22z m2104 -55 c12 -23 19 -44 16 -47 -4 -3 -12 9 -18 26 -7 18 -16
32 -20 32 -4 0 -8 7 -8 15 0 25 8 17 30 -26z m-2020 27 c0 -2 -16 -35 -36 -73
-41 -78 -60 -101 -51 -63 9 35 67 140 78 140 5 0 9 -2 9 -4z m-115 -46 c-9
-17 -20 -28 -26 -25 -5 4 -6 12 -3 18 26 45 52 51 29 7z m2075 -93 c0 -4 -5
-5 -10 -2 -11 7 -60 99 -60 112 1 11 70 -99 70 -110z m-183 -83 c-6 -6 -43 71
-51 106 -3 14 8 -3 25 -38 17 -35 29 -65 26 -68z m-1573 62 c-9 -26 -18 -45
-20 -43 -2 2 3 25 12 51 9 26 18 45 20 43 2 -2 -3 -25 -12 -51z m168 12 c-7
-7 -12 -19 -12 -27 0 -11 4 -10 16 5 15 18 15 18 9 -11 -8 -42 -26 -85 -35
-85 -13 0 -21 51 -11 64 6 7 8 15 5 19 -8 8 15 47 28 47 9 0 9 -3 0 -12z
m1188 -58 c0 -8 7 -27 14 -42 21 -40 24 -73 6 -73 -16 0 -64 150 -53 168 7 11
32 -30 33 -53z m-1072 -49 c-7 -32 -17 -51 -26 -51 -9 0 -12 6 -7 18 4 9 11
29 15 44 21 69 35 60 18 -11z m172 14 c0 -19 -5 -35 -11 -35 -8 0 -10 -15 -7
-45 5 -39 3 -45 -13 -45 -11 0 -19 3 -19 8 0 18 22 136 26 144 12 19 24 5 24
-27z m660 -70 c14 -80 8 -113 -8 -49 -15 59 -23 136 -13 130 4 -3 14 -39 21
-81z m-990 19 c0 -8 -4 -14 -10 -14 -5 0 -10 9 -10 21 0 11 5 17 10 14 6 -3
10 -13 10 -21z"/>
<path d="M3245 4300 c-8 -13 4 -32 16 -25 12 8 12 35 0 35 -6 0 -13 -4 -16
-10z"/>
<path d="M1280 4302 c0 -19 19 -52 30 -52 16 0 12 16 -10 41 -11 14 -19 18
-20 11z"/>
<path d="M1160 3503 c0 -5 9 -18 20 -28 11 -10 20 -14 20 -8 0 5 -9 18 -20 28
-11 10 -20 14 -20 8z"/>
<path d="M1457 3263 c9 -27 24 -43 39 -43 23 0 16 17 -16 40 -27 19 -29 19
-23 3z"/>
<path d="M2640 2166 c0 -2 7 -7 16 -10 8 -3 12 -2 9 4 -6 10 -25 14 -25 6z"/>
<path d="M2342 1750 c0 -14 2 -19 5 -12 2 6 2 18 0 25 -3 6 -5 1 -5 -13z"/>
<path d="M4005 3475 c-22 -14 -35 -25 -30 -25 6 0 28 11 50 25 22 13 36 24 30
24 -5 0 -28 -11 -50 -24z"/>
<path d="M3944 1775 c21 -16 32 -13 21 4 -3 6 -14 11 -23 11 -15 -1 -15 -2 2
-15z"/>
<path d="M885 1102 c-24 -18 -59 -63 -44 -57 9 3 26 19 38 35 22 31 23 35 6
22z"/>
<path d="M1181 874 c-30 -38 -26 -55 4 -19 23 28 31 45 21 45 -3 0 -14 -12
-25 -26z"/>
</g>
</svg>
